<svg xmlns="http://www.w3.org/2000/svg" viewBox="0 0 640 400" width="640" height="400" role="img" aria-label="Illustration of the property">
<defs><linearGradient id="sky" x1="0" y1="0" x2="0" y2="1"><stop offset="0" stop-color="#1d2b53"/><stop offset="1" stop-color="#3b4a7a"/></linearGradient></defs>
<rect width="640" height="400" fill="url(#sky)"/>
<circle cx="540" cy="70" r="26" fill="#f4f1d6"/>
<ellipse cx="120" cy="150" rx="90" ry="22" fill="#fff" opacity="0.12"/>
<ellipse cx="420" cy="90" rx="70" ry="18" fill="#fff" opacity="0.1"/>
<rect y="320" width="640" height="80" fill="hsl(205 35% 62%)"/>
<rect y="316" width="640" height="6" fill="hsl(205 30% 45%)"/>

    <rect x="170" y="80" width="300" height="240" fill="hsl(205 30% 45%)" stroke="hsl(205 25% 25%)" stroke-width="3"/>
    <rect x="190" y="100" width="40" height="38" rx="2" fill="#ffe9a8" stroke="#334" stroke-width="2"/><rect x="240" y="100" width="40" height="38" rx="2" fill="#ffe9a8" stroke="#334" stroke-width="2"/><rect x="290" y="100" width="40" height="38" rx="2" fill="#ffe9a8" stroke="#334" stroke-width="2"/><rect x="340" y="100" width="40" height="38" rx="2" fill="#ffe9a8" stroke="#334" stroke-width="2"/><rect x="390" y="100" width="40" height="38" rx="2" fill="#ffe9a8" stroke="#334" stroke-width="2"/><rect x="190" y="150" width="40" height="38" rx="2" fill="#ffe9a8" stroke="#334" stroke-width="2"/><rect x="240" y="150" width="40" height="38" rx="2" fill="#ffe9a8" stroke="#334" stroke-width="2"/><rect x="290" y="150" width="40" height="38" rx="2" fill="#ffe9a8" stroke="#334" stroke-width="2"/><rect x="340" y="150" width="40" height="38" rx="2" fill="#ffe9a8" stroke="#334" stroke-width="2"/><rect x="390" y="150" width="40" height="38" rx="2" fill="#ffe9a8" stroke="#334" stroke-width="2"/><rect x="190" y="200" width="40" height="38" rx="2" fill="#ffe9a8" stroke="#334" stroke-width="2"/><rect x="240" y="200" width="40" height="38" rx="2" fill="#ffe9a8" stroke="#334" stroke-width="2"/><rect x="290" y="200" width="40" height="38" rx="2" fill="#ffe9a8" stroke="#334" stroke-width="2"/><rect x="340" y="200" width="40" height="38" rx="2" fill="#ffe9a8" stroke="#334" stroke-width="2"/><rect x="390" y="200" width="40" height="38" rx="2" fill="#ffe9a8" stroke="#334" stroke-width="2"/><rect x="190" y="250" width="40" height="38" rx="2" fill="#ffe9a8" stroke="#334" stroke-width="2"/><rect x="240" y="250" width="40" height="38" rx="2" fill="#ffe9a8" stroke="#334" stroke-width="2"/><rect x="290" y="250" width="40" height="38" rx="2" fill="#ffe9a8" stroke="#334" stroke-width="2"/><rect x="340" y="250" width="40" height="38" rx="2" fill="#ffe9a8" stroke="#334" stroke-width="2"/><rect x="390" y="250" width="40" height="38" rx="2" fill="#ffe9a8" stroke="#334" stroke-width="2"/>
    <rect x="170" y="70" width="300" height="12" fill="hsl(205 25% 25%)"/>
<g transform="translate(80 280) scale(1.1)"><rect x="-6" y="0" width="12" height="40" fill="#6b4a2b"/><circle cx="0" cy="-10" r="34" fill="hsl(125 35% 40%)"/><circle cx="-22" cy="8" r="24" fill="hsl(125 35% 45%)"/><circle cx="22" cy="8" r="24" fill="hsl(125 35% 45%)"/></g>
<g transform="translate(575 290) scale(0.9)"><rect x="-6" y="0" width="12" height="40" fill="#6b4a2b"/><circle cx="0" cy="-10" r="34" fill="hsl(115 35% 40%)"/><circle cx="-22" cy="8" r="24" fill="hsl(115 35% 45%)"/><circle cx="22" cy="8" r="24" fill="hsl(115 35% 45%)"/></g>
</svg>
