<svg xmlns="http://www.w3.org/2000/svg" viewBox="0 0 640 400" width="640" height="400" role="img" aria-label="Illustration of the property">
<defs><linearGradient id="sky" x1="0" y1="0" x2="0" y2="1"><stop offset="0" stop-color="#f6b48a"/><stop offset="1" stop-color="#f9dfc7"/></linearGradient></defs>
<rect width="640" height="400" fill="url(#sky)"/>
<circle cx="540" cy="80" r="34" fill="#ffd27a" opacity="0.9"/>
<ellipse cx="120" cy="150" rx="90" ry="22" fill="#fff" opacity="0.6"/>
<ellipse cx="420" cy="90" rx="70" ry="18" fill="#fff" opacity="0.5"/>
<rect y="320" width="640" height="80" fill="hsl(15 35% 62%)"/>
<rect y="316" width="640" height="6" fill="hsl(15 30% 45%)"/>

    <rect x="200" y="100" width="240" height="220" fill="hsl(15 45% 52%)" stroke="hsl(15 25% 25%)" stroke-width="3"/>
    <rect x="220" y="120" width="32" height="40" rx="2" fill="#ffe9a8" stroke="#334" stroke-width="2"/><rect x="270" y="120" width="32" height="40" rx="2" fill="#ffe9a8" stroke="#334" stroke-width="2"/><rect x="320" y="120" width="32" height="40" rx="2" fill="#ffe9a8" stroke="#334" stroke-width="2"/><rect x="370" y="120" width="32" height="40" rx="2" fill="#ffe9a8" stroke="#334" stroke-width="2"/><rect x="220" y="170" width="32" height="40" rx="2" fill="#ffe9a8" stroke="#334" stroke-width="2"/><rect x="270" y="170" width="32" height="40" rx="2" fill="#ffe9a8" stroke="#334" stroke-width="2"/><rect x="320" y="170" width="32" height="40" rx="2" fill="#ffe9a8" stroke="#334" stroke-width="2"/><rect x="370" y="170" width="32" height="40" rx="2" fill="#ffe9a8" stroke="#334" stroke-width="2"/><rect x="220" y="220" width="32" height="40" rx="2" fill="#ffe9a8" stroke="#334" stroke-width="2"/><rect x="270" y="220" width="32" height="40" rx="2" fill="#ffe9a8" stroke="#334" stroke-width="2"/><rect x="320" y="220" width="32" height="40" rx="2" fill="#ffe9a8" stroke="#334" stroke-width="2"/><rect x="370" y="220" width="32" height="40" rx="2" fill="#ffe9a8" stroke="#334" stroke-width="2"/>
    <rect x="300" y="270" width="40" height="50" fill="hsl(15 25% 25%)"/>
    <rect x="200" y="90" width="240" height="12" fill="hsl(15 25% 25%)"/>
<g transform="translate(80 280) scale(1.1)"><rect x="-6" y="0" width="12" height="40" fill="#6b4a2b"/><circle cx="0" cy="-10" r="34" fill="hsl(135 35% 40%)"/><circle cx="-22" cy="8" r="24" fill="hsl(135 35% 45%)"/><circle cx="22" cy="8" r="24" fill="hsl(135 35% 45%)"/></g>
<g transform="translate(575 290) scale(0.9)"><rect x="-6" y="0" width="12" height="40" fill="#6b4a2b"/><circle cx="0" cy="-10" r="34" fill="hsl(125 35% 40%)"/><circle cx="-22" cy="8" r="24" fill="hsl(125 35% 45%)"/><circle cx="22" cy="8" r="24" fill="hsl(125 35% 45%)"/></g>
</svg>
